<svg width="14" height="16" viewBox="0 0 14 16" fill="none" xmlns="http://www.w3.org/2000/svg">
<path d="M11.6666 7H2.33324C1.59686 7 0.999908 7.65122 0.999908 8.45455V13.5455C0.999908 14.3488 1.59686 15 2.33324 15H11.6666C12.403 15 12.9999 14.3488 12.9999 13.5455V8.45455C12.9999 7.65122 12.403 7 11.6666 7Z" stroke="#B7B7B7" stroke-width="2" stroke-linecap="round" stroke-linejoin="round"/>
<path d="M3.00003 7.00003V4.33336C3.00003 3.44931 3.42146 2.60146 4.1716 1.97634C4.92175 1.35122 5.93916 1.00003 7.00003 1.00003C8.0609 1.00003 9.07831 1.35122 9.82846 1.97634C10.5786 2.60146 11 3.44931 11 4.33336V7.00003" stroke="#B7B7B7" stroke-width="2" stroke-linecap="round" stroke-linejoin="round"/>
</svg>
