<?xml version="1.0" standalone="no"?><!DOCTYPE svg PUBLIC "-//W3C//DTD SVG 1.1//EN" "http://www.w3.org/Graphics/SVG/1.1/DTD/svg11.dtd"><svg class="icon" height="512" viewBox="0 0 1024 1024" version="1.1" xmlns="http://www.w3.org/2000/svg"><path d="M924.284 336.97c-22.551-53.309-54.822-101.186-95.925-142.284-41.104-41.104-88.976-73.38-142.29-95.93-55.206-23.351-113.83-35.189-174.253-35.189S392.765 75.405 337.558 98.756c-53.309 22.55-101.181 54.826-142.285 95.93-41.103 41.098-73.379 88.975-95.925 142.284-23.35 55.202-35.189 113.835-35.189 174.254 0 60.423 11.84 119.05 35.189 174.258 22.545 53.309 54.822 101.18 95.925 142.284 41.103 41.104 88.976 73.38 142.285 95.926 55.206 23.35 113.835 35.188 174.258 35.188s119.046-11.838 174.253-35.188c53.313-22.545 101.186-54.822 142.29-95.926 41.098-41.103 73.374-88.975 95.925-142.284 23.35-55.207 35.189-113.835 35.189-174.258 0-60.42-11.84-119.051-35.189-174.254z m-175.631 54.2L477.101 671.438c-5.27 5.438-12.345 8.433-19.921 8.433a27.653 27.653 0 0 1-18.767-7.318L274.074 521.505c-11.256-10.347-11.998-27.928-1.653-39.191a27.818 27.818 0 0 1 20.428-8.966 27.656 27.656 0 0 1 18.764 7.314l144.448 132.769 252.75-260.864c5.275-5.442 12.353-8.438 19.931-8.438a27.583 27.583 0 0 1 19.293 7.815c10.985 10.645 11.261 28.243 0.616 39.226z" fill="#4DA231" /></svg>